<svg width="50" height="50" viewBox="0 0 50 50" fill="none" xmlns="http://www.w3.org/2000/svg">
<g id="icons-Zen" clip-path="url(#clip0_708_7322)">
<g id="Vector">
<path d="M19.8969 0.523113C9.2311 2.84338 1.40298 11.4708 0.130908 22.3532L-0.0974121 24.2813L4.27329 24.0525C13.0799 23.5623 16.8635 22.3532 19.8317 19.1179C22.5063 16.1767 23.55 12.4839 24.0067 4.31396L24.235 0.000240326L23.126 0.032917C22.5063 0.032917 21.0711 0.261677 19.8969 0.523113Z" fill="#DDE7F8"/>
<path d="M0.163525 27.6146C0.554932 30.7846 1.23989 33.0395 2.83813 36.2748C4.11021 38.8891 4.79517 39.8042 7.30669 42.3205C8.93755 43.9218 11.1229 45.7519 12.134 46.3728C14.7434 47.8761 19.1467 49.3466 21.854 49.5754L24.1372 49.7715V48.0068C24.1372 44.9676 23.4848 38.8565 22.9629 36.7976C21.4952 31.1767 18.0704 27.9087 12.2319 26.6342C10.9598 26.3401 7.6981 26.046 4.92563 25.9153L-0.0974121 25.7192L0.163525 27.6146Z" fill="#DDE7F8"/>
<path d="M40.1855 26.1766C30.0415 27.4838 26.3558 32.2877 25.8665 44.706L25.6708 49.6733H27.1386C32.6835 49.6733 40.7726 45.2289 44.5888 40.0982C47.3286 36.4054 49.5792 30.5884 49.5792 27.1897V25.8171L45.9261 25.8498C43.9038 25.8825 41.3271 26.0132 40.1855 26.1766Z" fill="#DDE7F8"/>
<path d="M25.8665 4.93478C26.0948 10.523 26.6167 13.4642 27.8562 16.0786C29.5522 19.6733 32.3899 21.8956 36.7606 23.0067C38.7177 23.5296 44.9802 24.1832 48.0788 24.1832H49.6771L49.4813 21.9609C48.5681 10.9805 39.1417 1.60146 27.5626 0.163544L25.6708 -0.0978928L25.8665 4.93478Z" fill="#DDE7F8"/>
</g>
</g>
<defs>
<clipPath id="clip0_708_7322">
<rect width="50" height="50" fill="white"/>
</clipPath>
</defs>
</svg>
