<svg width="50" height="50" viewBox="0 0 50 50" fill="none" xmlns="http://www.w3.org/2000/svg">
<g id="icons-telegram" clip-path="url(#clip0_708_7321)">
<circle id="Ellipse" cx="25" cy="25" r="24.5" stroke="#DDE7F8"/>
<path id="Vector" d="M27.3523 21.859L27.3521 21.8591C27.0089 22.1915 26.632 22.5535 26.2361 22.9336C25.1822 23.9458 23.994 25.0869 22.9503 26.1419C22.2328 26.8672 21.5922 27.5433 21.1163 28.1012C20.878 28.3806 20.6872 28.6232 20.5501 28.8229C20.4045 29.0351 20.3503 29.1557 20.3389 29.2002C20.3065 29.3291 20.3348 29.5346 20.5181 29.84C20.6966 30.1375 20.9814 30.46 21.3246 30.7821C22.0082 31.424 22.841 31.9887 23.2616 32.2639L27.3523 21.859ZM27.3523 21.859C27.6228 21.5967 27.8256 21.3339 27.9387 21.0847M27.3523 21.859L27.9387 21.0847M14.5463 27.608L14.5464 27.608C14.9083 27.6683 15.2207 27.6668 15.5898 27.5682C15.9725 27.4659 16.4382 27.2533 17.0942 26.8541C18.5978 25.9387 23.1982 22.6491 26.0779 20.4759L14.5463 27.608ZM14.5463 27.608C13.0445 27.3581 11.661 26.9723 10.5421 26.5081L10.542 26.5081M14.5463 27.608L10.542 26.5081M10.542 26.5081C9.41033 26.0388 9.43657 24.4643 10.5433 23.9983L31.9182 14.9983C31.9182 14.9983 31.9182 14.9983 31.9183 14.9983M10.542 26.5081L31.9183 14.9983M31.9183 14.9983C32.1448 14.903 32.3927 14.8701 32.6362 14.9031M31.9183 14.9983L32.6362 14.9031M32.6362 14.9031C32.8798 14.9361 33.11 15.0337 33.303 15.1859M32.6362 14.9031L33.303 15.1859M33.303 15.1859C33.496 15.3381 33.6447 15.5392 33.7335 15.7684M33.303 15.1859L33.7335 15.7684M33.7335 15.7684C33.8224 15.9975 33.8482 16.2462 33.8084 16.4886M33.7335 15.7684L33.8084 16.4886M33.8084 16.4886C33.8084 16.4887 33.8084 16.4887 33.8084 16.4888M33.8084 16.4886L33.8084 16.4888M33.8084 16.4888L30.9735 33.6844L33.8084 16.4888ZM28.0892 35.1106C29.2965 35.7663 30.7522 35.0175 30.9734 33.6849L28.0892 35.1106ZM28.0892 35.1106C26.8214 34.4219 24.9451 33.3644 23.2618 32.2641L28.0892 35.1106ZM27.9387 21.0847C28.0331 20.877 28.1479 20.4767 27.8634 20.1653M27.9387 21.0847L27.8634 20.1653M27.8634 20.1653C27.5868 19.8627 27.1829 19.9241 26.9604 19.9907M27.8634 20.1653L26.9604 19.9907M26.9604 19.9907C26.6931 20.0707 26.3942 20.2372 26.078 20.4759L26.9604 19.9907Z" fill="#DDE7F8" stroke="#DDE7F8"/>
</g>
<defs>
<clipPath id="clip0_708_7321">
<rect width="50" height="50" fill="white"/>
</clipPath>
</defs>
</svg>
