<svg width="50" height="50" viewBox="0 0 50 50" fill="none" xmlns="http://www.w3.org/2000/svg">
<g id="icons-VK" clip-path="url(#clip0_708_7320)">
<circle id="Ellipse" cx="25" cy="25" r="24.5" stroke="#DDE7F8"/>
<path id="Vector" d="M31.0437 29.8142L31.0437 29.8142L31.037 29.8077C29.3368 28.1691 28.4973 27.8364 27.8587 27.8364C27.559 27.8364 27.1444 27.8656 26.8708 28.2065C26.7436 28.365 26.6821 28.5496 26.6493 28.7245C26.6165 28.899 26.6062 29.0975 26.6062 29.3127V31.8777C26.6062 32.1788 26.5562 32.2276 26.4901 32.2716C26.3453 32.368 25.9792 32.4763 25.0855 32.4777C23.4121 32.3626 21.7896 31.8529 20.3508 30.9903C18.9073 30.1248 17.69 28.9287 16.7992 27.5006L16.7835 27.4753L16.7648 27.452C14.6111 24.7715 13.1089 21.6281 12.3761 18.2691C12.3819 18.1442 12.4099 18.1055 12.421 18.0939C12.4304 18.0839 12.5135 18.0027 12.8525 18.0027H15.7025C15.9896 18.0027 16.1023 18.064 16.175 18.1301C16.2733 18.2194 16.3764 18.3884 16.5159 18.7525C17.2198 20.8218 18.1715 22.758 19.0751 24.1848C19.5266 24.8979 19.9748 25.4976 20.3835 25.9258C20.5874 26.1393 20.7927 26.3221 20.9942 26.455C21.1862 26.5815 21.4269 26.6977 21.69 26.6977C21.8117 26.6977 21.971 26.6856 22.13 26.6151C22.3041 26.5379 22.4375 26.4093 22.529 26.2442C22.6848 25.9628 22.7175 25.5702 22.7175 25.1189V20.9239V20.9081L22.7165 20.8923C22.6492 19.8297 22.3257 19.2206 22.0061 18.786C21.9377 18.693 21.8704 18.6091 21.8138 18.5386C21.8084 18.5319 21.8031 18.5254 21.798 18.519C21.7351 18.4406 21.6898 18.383 21.6537 18.3301C21.5978 18.2481 21.5838 18.2057 21.5808 18.1739C21.5881 18.1278 21.6111 18.0853 21.6462 18.0539C21.6857 18.0186 21.7375 18 21.7905 18.0022L21.8009 18.0027H21.8112H26.2912C26.4062 18.0027 26.4686 18.0175 26.499 18.029C26.5215 18.0376 26.5262 18.0438 26.5296 18.0483L26.53 18.0487C26.5521 18.078 26.6062 18.1926 26.6062 18.5402V24.2027C26.6062 24.9109 26.9424 25.5164 27.5537 25.5164C28.1618 25.5164 28.5883 25.1366 29.2307 24.4953L29.2483 24.4777L29.2641 24.4585C30.7391 22.6596 31.9442 20.6555 32.8413 18.5093L32.8465 18.4969L32.851 18.4843C32.9043 18.3347 33.005 18.2067 33.1378 18.1198L32.8645 17.7022L33.1378 18.1198C33.2707 18.0328 33.4283 17.9917 33.5866 18.0027L33.6039 18.0039H33.6212H36.4725C36.6483 18.0039 36.757 18.0264 36.8191 18.0493C36.8488 18.0603 36.865 18.0703 36.8724 18.0757C36.8762 18.0785 36.8783 18.0804 36.8792 18.0813L36.8804 18.0827L36.8812 18.0842C36.8818 18.0853 36.8828 18.0876 36.884 18.0915C36.8865 18.0996 36.89 18.1153 36.891 18.1413C36.8929 18.1913 36.885 18.2662 36.8566 18.3696C35.8367 20.6482 34.5764 22.8115 33.0972 24.8227L33.0893 24.8335L33.0819 24.8447L33.0755 24.8544C32.9364 25.0664 32.7521 25.3473 32.7251 25.6792C32.6951 26.0481 32.8574 26.3678 33.0947 26.6747C33.2729 26.9361 33.6231 27.279 33.9566 27.6053L33.9813 27.6295L34.0008 27.6486C34.369 28.009 34.7601 28.3917 35.072 28.7605L35.0856 28.7767L35.1006 28.7917C36.0294 29.7181 36.802 30.7879 37.3893 31.9592C37.468 32.2391 37.4024 32.3282 37.3859 32.3474C37.3511 32.3877 37.2237 32.4764 36.8787 32.4764H34.0275C33.8332 32.4764 33.6916 32.439 33.5563 32.3675C33.4099 32.2902 33.2496 32.162 33.0339 31.9451C32.8595 31.7698 32.669 31.5577 32.4321 31.2939C32.3733 31.2285 32.3118 31.16 32.2469 31.088C31.925 30.7311 31.5357 30.3066 31.0437 29.8142Z" fill="#DDE7F8" stroke="#DDE7F8"/>
</g>
<defs>
<clipPath id="clip0_708_7320">
<rect width="50" height="50" fill="white"/>
</clipPath>
</defs>
</svg>
