<svg width="136" height="69" viewBox="0 0 136 69" fill="none" xmlns="http://www.w3.org/2000/svg">
<path d="M49.6772 0C33.645 6.54836 17.8386 13.3225 1.80645 20.0967C0.451618 20.5483 0 21.2257 0 22.8064C0 34.3225 0 45.8385 0 57.3546C0 60.9675 0 64.5804 0 68.1933C45.1611 68.1933 90.3222 68.1933 135.258 68.1933C135.258 56.903 135.258 45.8385 135.258 34.5483L49.6772 0ZM46.2901 63.6772C40.4192 63.6772 34.5483 63.6772 28.4515 63.6772C28.4515 55.774 28.4515 47.8708 28.4515 39.7418C24.387 40.645 20.7741 41.3224 16.7096 42.2256C16.7096 49.2256 16.7096 56.2256 16.7096 63.4514C12.8709 63.4514 9.03223 63.4514 4.96773 63.4514C4.96773 63.2256 4.74193 62.7739 4.74193 62.3223C4.74193 50.1288 4.74193 37.9353 4.74193 25.516C4.74193 24.6128 4.74193 23.9354 5.87096 23.4838C18.9677 18.0644 32.0644 12.6451 45.3869 7.22579C45.6127 7.22579 45.8385 7.22579 46.0643 6.99998C46.2902 25.9676 46.2901 44.7095 46.2901 63.6772ZM72.9352 34.5483C68.1933 33.8708 63.6772 32.9676 58.9353 32.2902C58.9353 28.9031 58.9353 25.516 58.9353 21.6773C63.6772 22.8064 68.1933 23.9354 72.9352 25.0644C72.9352 28.2257 72.9352 31.1612 72.9352 34.5483ZM94.8383 37.9353C90.548 37.0321 86.4835 36.3547 82.419 35.4515C82.419 32.516 82.419 30.0321 82.419 27.0967C86.7093 28.2257 90.7738 29.1289 94.8383 30.2579C94.8383 32.7418 94.8383 35.2257 94.8383 37.9353ZM111.096 40.645C107.935 40.1934 105 39.516 101.838 39.0644C101.838 36.5805 101.838 34.3225 101.838 31.8386C105 32.7418 108.161 33.4192 111.096 34.0966C111.096 36.3547 111.096 38.3869 111.096 40.645ZM118.322 41.5482C118.322 39.516 118.322 37.7095 118.322 35.6773C121.032 36.3547 123.516 36.8063 125.999 37.4837C125.999 39.2902 125.999 41.0966 125.999 42.903C123.516 42.4514 121.032 41.9998 118.322 41.5482Z" fill="#242C59"/>
</svg>
