<svg width="136" height="85" viewBox="0 0 136 85" fill="none" xmlns="http://www.w3.org/2000/svg">
<path d="M49.6772 0C33.645 6.54836 17.8386 13.3225 1.80645 20.0967C0.451618 20.5483 0 21.2257 0 22.8064C0 34.3225 0 45.8385 0 57.3546C0 60.9675 0 64.5804 0 68.1933C45.1611 68.1933 90.3222 68.1933 135.258 68.1933C135.258 56.903 135.258 45.8385 135.258 34.5483L49.6772 0ZM46.2901 63.6772C40.4192 63.6772 34.5483 63.6772 28.4515 63.6772C28.4515 55.774 28.4515 47.8708 28.4515 39.7418C24.387 40.645 20.7741 41.3224 16.7096 42.2256C16.7096 49.2256 16.7096 56.2256 16.7096 63.4514C12.8709 63.4514 9.03223 63.4514 4.96773 63.4514C4.96773 63.2256 4.74193 62.7739 4.74193 62.3223C4.74193 50.1288 4.74193 37.9353 4.74193 25.516C4.74193 24.6128 4.74193 23.9354 5.87096 23.4838C18.9677 18.0644 32.0644 12.6451 45.3869 7.22579C45.6127 7.22579 45.8385 7.22579 46.0643 6.99998C46.2902 25.9676 46.2901 44.7095 46.2901 63.6772ZM72.9352 34.5483C68.1933 33.8708 63.6772 32.9676 58.9353 32.2902C58.9353 28.9031 58.9353 25.516 58.9353 21.6773C63.6772 22.8064 68.1933 23.9354 72.9352 25.0644C72.9352 28.2257 72.9352 31.1612 72.9352 34.5483ZM94.8383 37.9353C90.548 37.0321 86.4835 36.3547 82.419 35.4515C82.419 32.516 82.419 30.0321 82.419 27.0967C86.7093 28.2257 90.7738 29.1289 94.8383 30.2579C94.8383 32.7418 94.8383 35.2257 94.8383 37.9353ZM111.096 40.645C107.935 40.1934 105 39.516 101.838 39.0644C101.838 36.5805 101.838 34.3225 101.838 31.8386C105 32.7418 108.161 33.4192 111.096 34.0966C111.096 36.3547 111.096 38.3869 111.096 40.645ZM118.322 41.5482C118.322 39.516 118.322 37.7095 118.322 35.6773C121.032 36.3547 123.516 36.8063 125.999 37.4837C125.999 39.2902 125.999 41.0966 125.999 42.903C123.516 42.4514 121.032 41.9998 118.322 41.5482Z" fill="#242C59"/>
<path fill-rule="evenodd" clip-rule="evenodd" d="M40.4138 73.6128H121.704C121.252 73.1612 120.801 72.4837 120.349 71.8063C119.22 69.9999 118.542 67.2902 118.542 64.5806C118.542 61.8709 119.22 59.1612 120.349 57.3548C120.801 56.6774 121.252 56 121.704 55.5483H40.4138C39.2848 55.5483 37.9299 56.4515 37.2525 58.0322C36.3493 59.6128 35.6719 62.0967 35.6719 64.5806C35.6719 67.2902 36.3493 69.5483 37.2525 71.1289C37.9299 72.7095 39.059 73.6128 40.4138 73.6128Z" fill="#F6F6F6" stroke="#242C59" stroke-width="0.9184" stroke-miterlimit="22.9256"/>
<path fill-rule="evenodd" clip-rule="evenodd" d="M121.031 57.8061C120.128 59.3868 119.45 61.8706 119.45 64.3545C119.45 67.0642 120.128 69.3222 121.031 70.9029C121.934 72.4835 123.063 73.3867 124.192 73.3867C125.321 73.3867 126.676 72.4835 127.353 70.9029C128.257 69.3222 128.934 66.8383 128.934 64.3545C128.934 61.6448 128.257 59.3868 127.353 57.8061C126.45 56.2255 125.321 55.3223 124.192 55.3223C123.063 55.3223 121.934 56.2255 121.031 57.8061Z" fill="#242C59" stroke="#242C59" stroke-width="0.9191" stroke-miterlimit="22.9256"/>
<path d="M35.6702 60.516H118.767" stroke="#242C59" stroke-width="0.6382" stroke-miterlimit="22.9256"/>
<path fill-rule="evenodd" clip-rule="evenodd" d="M30.0337 84.0002H111.324C110.872 83.5486 110.42 82.8712 109.969 82.1938C108.84 80.3874 108.162 77.6777 108.162 74.968C108.162 72.2583 108.84 69.5487 109.969 67.7422C110.42 67.0648 110.872 66.3874 111.324 65.9358H30.0337C28.9046 65.9358 27.5498 66.839 26.8724 68.4197C25.9692 70.0003 25.2917 72.4842 25.2917 74.968C25.2917 77.4519 25.9692 79.9358 26.8724 81.5164C27.5498 83.097 28.6788 84.0002 30.0337 84.0002Z" fill="#F6F6F6" stroke="#242C59" stroke-width="0.9184" stroke-miterlimit="22.9256"/>
<path fill-rule="evenodd" clip-rule="evenodd" d="M110.651 68.1936C109.747 69.7742 109.07 72.2581 109.07 74.7419C109.07 77.2258 109.747 79.7096 110.651 81.2903C111.554 82.8709 112.683 83.7742 113.812 83.7742C114.941 83.7742 116.296 82.8709 116.973 81.2903C117.876 79.7096 118.554 77.2258 118.554 74.7419C118.554 72.2581 117.876 69.7742 116.973 68.1936C116.07 66.6129 114.941 65.7097 113.812 65.7097C112.683 65.7097 111.554 66.6129 110.651 68.1936Z" fill="#242C59" stroke="#242C59" stroke-width="0.9191" stroke-miterlimit="22.9256"/>
<path d="M25.2891 70.9033H108.16" stroke="#242C59" stroke-width="0.6382" stroke-miterlimit="22.9256"/>
</svg>
