<svg width="167" height="98" viewBox="0 0 167 98" fill="none" xmlns="http://www.w3.org/2000/svg">
<g id="Group 15">
<g id="Group">
<g id="Group_2">
<path id="Vector" d="M47.2147 0C31.9772 6.22376 16.9544 12.6621 1.71689 19.1005C0.429215 19.5297 0 20.1735 0 21.6758C0 32.6211 0 43.5663 0 54.5115C0 57.9453 0 61.3791 0 64.8129C42.9225 64.8129 85.8449 64.8129 128.553 64.8129C128.553 54.0823 128.553 43.5663 128.553 32.8357L47.2147 0ZM43.7809 60.5207C38.201 60.5207 32.6211 60.5207 26.8265 60.5207C26.8265 53.0092 26.8265 45.4978 26.8265 37.7717C22.9635 38.6302 19.5297 39.274 15.6667 40.1325C15.6667 46.7855 15.6667 53.4384 15.6667 60.306C12.0183 60.306 8.36988 60.306 4.50686 60.306C4.50686 60.0914 4.29225 59.6622 4.29225 59.233C4.29225 47.6439 4.29225 36.0549 4.29225 24.2512C4.29225 23.3927 4.29225 22.7489 5.36531 22.3197C17.8128 17.169 30.2603 12.0183 42.9225 6.86759C43.1371 6.86759 43.3517 6.86757 43.5663 6.65296C43.7809 24.6804 43.7809 42.4932 43.7809 60.5207ZM69.3198 32.8357C64.8129 32.1919 60.5207 31.3334 56.0138 30.6896C56.0138 27.4704 56.0138 24.2512 56.0138 20.6028C60.5207 21.6758 64.8129 22.7489 69.3198 23.8219C69.3198 26.8265 69.3198 29.8311 69.3198 32.8357ZM90.1371 36.0549C86.0595 35.1964 82.1965 34.5526 78.3335 33.6941C78.3335 30.9042 78.3335 28.5434 78.3335 25.7535C82.4111 26.8265 86.2741 27.685 90.1371 28.758C90.1371 31.1188 90.1371 33.4795 90.1371 36.0549ZM105.589 38.6302C102.585 38.201 99.7947 37.5572 96.7901 37.1279C96.7901 34.7672 96.7901 32.6211 96.7901 30.2603C99.7947 31.1188 102.799 31.7626 105.589 32.4064C105.589 34.5526 105.589 36.4841 105.589 38.6302ZM112.457 39.7033C112.457 37.7718 112.457 36.0549 112.457 34.1233C115.032 34.7672 117.393 35.1964 119.754 35.8403C119.754 37.5571 119.754 39.274 119.754 40.9909C117.393 40.5617 115.032 40.1325 112.457 39.7033Z" fill="#242C59"/>
</g>
</g>
<g id="Group_3">
<g id="Group_4">
<g id="Group_5">
<path id="Vector_2" fill-rule="evenodd" clip-rule="evenodd" d="M66.9747 72.5398H157.756C157.112 71.896 156.683 71.2521 156.253 70.6083C155.18 68.4621 154.322 65.6722 154.322 62.453C154.322 59.2338 154.966 56.4439 156.253 54.2977C156.683 53.4393 157.112 52.7954 157.756 52.3662H66.9747C65.687 52.3662 64.3993 53.4393 63.3262 55.1562C62.2532 57.0877 61.6094 59.663 61.6094 62.6676C61.6094 65.6722 62.2532 68.2475 63.3262 70.179C64.3993 71.4667 65.4724 72.5398 66.9747 72.5398Z" fill="#F6F6F6" stroke="#242C59" stroke-miterlimit="10"/>
<path id="Vector_3" fill-rule="evenodd" clip-rule="evenodd" d="M156.467 54.9413C155.394 56.8728 154.75 59.4482 154.75 62.4527C154.75 65.4573 155.394 68.0327 156.467 69.9642C157.54 71.6811 158.613 72.7541 160.115 72.7541C161.403 72.7541 162.691 71.6811 163.764 69.9642C164.837 68.0327 165.481 65.4573 165.481 62.4527C165.481 59.4482 164.837 56.8728 163.764 54.9413C162.691 53.2244 161.618 52.1514 160.115 52.1514C158.613 52.1514 157.325 53.2244 156.467 54.9413Z" fill="#F6F6F6" stroke="#242C59" stroke-width="1.0795" stroke-miterlimit="22.9256"/>
</g>
</g>
<g id="Group_6">
<g id="Group_7">
<path id="Vector_4" fill-rule="evenodd" clip-rule="evenodd" d="M56.2325 84.3425H147.013C146.37 83.6987 145.94 83.0549 145.511 82.411C144.438 80.2649 143.58 77.4749 143.58 74.2557C143.58 71.0365 144.224 68.2466 145.511 66.1005C145.94 65.242 146.37 64.5982 147.013 64.1689H56.2325C54.9448 64.1689 53.6571 65.242 52.5841 66.9589C51.511 68.8904 50.8672 71.4658 50.8672 74.4703C50.8672 77.4749 51.511 80.0503 52.5841 81.9818C53.6571 83.2694 54.9448 84.3425 56.2325 84.3425Z" fill="#F6F6F6" stroke="#242C59" stroke-width="1.0786" stroke-miterlimit="22.9256"/>
<path id="Vector_5" fill-rule="evenodd" clip-rule="evenodd" d="M145.498 66.744C144.425 68.6755 143.781 71.2509 143.781 74.2555C143.781 77.26 144.425 79.8354 145.498 81.7669C146.571 83.4838 147.644 84.5569 149.147 84.5569C150.434 84.5569 151.722 83.4838 152.795 81.7669C153.868 79.8354 154.512 77.26 154.512 74.2555C154.512 71.2509 153.868 68.6755 152.795 66.744C151.722 65.0271 150.649 63.9541 149.147 63.9541C147.644 63.9541 146.357 65.0271 145.498 66.744Z" fill="#F6F6F6" stroke="#242C59" stroke-width="1.0795" stroke-miterlimit="22.9256"/>
</g>
</g>
<g id="Group_8">
<g id="Group_9">
<path id="Vector_6" fill-rule="evenodd" clip-rule="evenodd" d="M45.5137 97.0051H136.295C135.651 96.3612 135.222 95.7174 134.792 95.0736C133.719 92.9275 132.861 90.1375 132.861 86.9183C132.861 83.6991 133.505 80.9092 134.792 78.763C135.222 77.9046 135.651 77.2608 136.295 76.8315H45.5137C44.2261 76.8315 42.9384 77.9046 41.8653 79.6215C40.7923 81.553 40.1484 84.1283 40.1484 87.1329C40.1484 90.1375 40.7923 92.7128 41.8653 94.6443C42.9384 95.932 44.2261 97.0051 45.5137 97.0051Z" fill="#F6F6F6" stroke="#242C59" stroke-width="1.0786" stroke-miterlimit="22.9256"/>
<path id="Vector_7" fill-rule="evenodd" clip-rule="evenodd" d="M134.779 79.4067C133.706 81.3382 133.062 83.9135 133.062 86.9181C133.062 89.9226 133.706 92.498 134.779 94.4295C135.852 96.1464 136.926 97.2195 138.428 97.2195C139.715 97.2195 141.003 96.1464 142.076 94.4295C143.149 92.498 143.793 89.9226 143.793 86.9181C143.793 83.9135 143.149 81.3382 142.076 79.4067C141.003 77.6898 139.93 76.6167 138.428 76.6167C137.14 76.6167 135.852 77.6898 134.779 79.4067Z" fill="#F6F6F6" stroke="#242C59" stroke-width="1.0795" stroke-miterlimit="22.9256"/>
</g>
</g>
</g>
</g>
</svg>
