<svg width="236" height="54" viewBox="0 0 236 54" fill="none" xmlns="http://www.w3.org/2000/svg">
<g id="Logo">
<path id="Vector" d="M66.4382 30.2795H79.7118V33.7698H70.5895V38.1326H78.4955V41.3585H70.5895V49.1587H66.4382V30.2795ZM86.5277 45.6684H90.2295C90.8287 45.6684 91.4104 45.5714 91.9746 45.3776C92.5387 45.1837 93.0411 44.8664 93.4818 44.4257C93.9224 43.9674 94.275 43.3768 94.5395 42.6541C94.8039 41.9314 94.9361 41.0499 94.9361 40.01C94.9361 39.0581 94.8391 38.2032 94.6452 37.4452C94.4689 36.6696 94.1693 36.0086 93.7462 35.4621C93.3232 34.9155 92.759 34.5014 92.054 34.2193C91.3665 33.9197 90.5114 33.7698 89.4892 33.7698H86.5277V45.6684ZM82.3764 30.2795H90.5204C91.7367 30.2795 92.8647 30.4734 93.9049 30.8613C94.9625 31.2491 95.8703 31.8308 96.6283 32.6064C97.4039 33.3819 98.0033 34.3515 98.4263 35.5149C98.8669 36.6784 99.0874 38.0446 99.0874 39.6133C99.0874 40.9883 98.911 42.2575 98.5586 43.4209C98.2059 44.5843 97.6683 45.5891 96.9456 46.4352C96.2405 47.2813 95.3502 47.9511 94.275 48.4448C93.2174 48.9207 91.9657 49.1587 90.5204 49.1587H82.3764V30.2795ZM108.744 46.6996C109.361 46.6996 109.872 46.5762 110.278 46.3295C110.701 46.0827 111.036 45.7654 111.282 45.3776C111.547 44.9722 111.732 44.505 111.838 43.9762C111.943 43.4473 111.996 42.9098 111.996 42.3633C111.996 41.8167 111.935 41.2792 111.811 40.7503C111.706 40.2215 111.52 39.7543 111.256 39.3489C110.992 38.9259 110.648 38.5909 110.225 38.3442C109.819 38.0797 109.317 37.9475 108.718 37.9475C108.101 37.9475 107.581 38.0797 107.158 38.3442C106.752 38.5909 106.417 38.9171 106.153 39.3225C105.906 39.7279 105.73 40.1951 105.624 40.7239C105.518 41.2527 105.465 41.7992 105.465 42.3633C105.465 42.9098 105.518 43.4473 105.624 43.9762C105.747 44.505 105.932 44.9722 106.179 45.3776C106.444 45.7654 106.787 46.0827 107.21 46.3295C107.634 46.5762 108.145 46.6996 108.744 46.6996ZM101.843 35.4885H105.412V37.2336H105.465C105.924 36.4933 106.505 35.9557 107.21 35.6207C107.915 35.2857 108.691 35.1183 109.537 35.1183C110.612 35.1183 111.538 35.3211 112.314 35.7265C113.089 36.1318 113.733 36.6696 114.244 37.3394C114.755 38.0092 115.134 38.7937 115.381 39.6927C115.628 40.574 115.751 41.4994 115.751 42.469C115.751 43.3857 115.628 44.267 115.381 45.1132C115.134 45.9593 114.755 46.7084 114.244 47.3607C113.75 48.013 113.124 48.5328 112.367 48.9207C111.626 49.3086 110.754 49.5024 109.749 49.5024C108.903 49.5024 108.118 49.335 107.396 49C106.69 48.6475 106.109 48.1362 105.65 47.4664H105.598V53.9446H101.843V35.4885ZM118.377 30.2795H122.132V49.1587H118.377V30.2795ZM125.194 39.6927C125.247 38.8114 125.467 38.0797 125.855 37.498C126.243 36.9163 126.737 36.4491 127.336 36.0966C127.935 35.7442 128.605 35.4972 129.346 35.3563C130.103 35.1976 130.862 35.1183 131.62 35.1183C132.307 35.1183 133.003 35.1712 133.708 35.277C134.413 35.365 135.057 35.5501 135.639 35.8322C136.22 36.1143 136.696 36.511 137.067 37.0221C137.437 37.5157 137.622 38.1768 137.622 39.0052V46.1179C137.622 46.7348 137.657 47.3255 137.728 47.8895C137.798 48.4535 137.921 48.8766 138.098 49.1587H134.29C134.22 48.9472 134.158 48.7356 134.105 48.5241C134.07 48.2949 134.043 48.0658 134.026 47.8366C133.426 48.4535 132.721 48.8855 131.91 49.1322C131.1 49.379 130.271 49.5024 129.425 49.5024C128.773 49.5024 128.165 49.4231 127.6 49.2645C127.036 49.1058 126.543 48.8591 126.12 48.5241C125.697 48.1891 125.362 47.766 125.115 47.2549C124.886 46.7438 124.771 46.1356 124.771 45.4305C124.771 44.6549 124.903 44.0203 125.168 43.5267C125.45 43.0155 125.802 42.61 126.226 42.3104C126.666 42.0108 127.16 41.7903 127.706 41.6493C128.27 41.4907 128.834 41.3672 129.399 41.2792C129.963 41.1911 130.518 41.1205 131.064 41.0676C131.611 41.0147 132.096 40.9354 132.519 40.8297C132.942 40.7239 133.276 40.574 133.523 40.3801C133.77 40.1686 133.885 39.869 133.867 39.4811C133.867 39.0758 133.797 38.7585 133.656 38.5293C133.532 38.2825 133.356 38.0974 133.127 37.974C132.915 37.833 132.66 37.7448 132.36 37.7096C132.078 37.6567 131.769 37.6302 131.434 37.6302C130.694 37.6302 130.112 37.7889 129.689 38.1062C129.266 38.4235 129.019 38.9523 128.949 39.6927H125.194ZM133.867 42.469C133.708 42.61 133.506 42.7247 133.259 42.8128C133.03 42.8833 132.774 42.945 132.492 42.9978C132.228 43.0507 131.946 43.0949 131.646 43.13C131.346 43.1652 131.047 43.2094 130.747 43.2623C130.465 43.3151 130.183 43.3857 129.901 43.4738C129.636 43.5619 129.399 43.6853 129.187 43.844C128.993 43.9849 128.834 44.17 128.711 44.3992C128.588 44.6285 128.526 44.9193 128.526 45.2718C128.526 45.6068 128.588 45.8887 128.711 46.1179C128.834 46.3471 129.002 46.5322 129.213 46.6732C129.425 46.7966 129.672 46.8847 129.954 46.9376C130.236 46.9905 130.527 47.0169 130.826 47.0169C131.567 47.0169 132.139 46.8935 132.545 46.6468C132.95 46.4 133.25 46.1092 133.444 45.7742C133.638 45.4217 133.752 45.069 133.788 44.7165C133.841 44.364 133.867 44.0819 133.867 43.8704V42.469ZM143.709 44.7165C143.709 45.1219 143.788 45.4746 143.947 45.7742C144.123 46.0563 144.344 46.2943 144.608 46.4881C144.872 46.6644 145.172 46.7966 145.507 46.8847C145.86 46.9728 146.221 47.0169 146.591 47.0169C146.856 47.0169 147.129 46.9905 147.411 46.9376C147.71 46.867 147.975 46.7702 148.204 46.6468C148.451 46.5058 148.654 46.3295 148.812 46.1179C148.971 45.8887 149.05 45.6068 149.05 45.2718C149.05 44.7078 148.671 44.2847 147.913 44.0026C147.173 43.7205 146.133 43.4386 144.793 43.1565C144.247 43.033 143.709 42.8921 143.18 42.7334C142.669 42.5571 142.211 42.3368 141.805 42.0724C141.4 41.7903 141.074 41.4466 140.827 41.0412C140.58 40.6181 140.457 40.107 140.457 39.5076C140.457 38.6263 140.624 37.9034 140.959 37.3394C141.312 36.7754 141.77 36.3346 142.334 36.0173C142.898 35.6823 143.533 35.4533 144.238 35.3298C144.943 35.1889 145.666 35.1183 146.406 35.1183C147.146 35.1183 147.86 35.1889 148.548 35.3298C149.253 35.4708 149.879 35.7088 150.425 36.0438C150.972 36.3787 151.421 36.8283 151.774 37.3923C152.144 37.9388 152.364 38.635 152.435 39.4811H148.865C148.812 38.7585 148.539 38.2736 148.045 38.0269C147.552 37.7625 146.97 37.6302 146.3 37.6302C146.089 37.6302 145.86 37.6479 145.613 37.6831C145.366 37.7008 145.137 37.7537 144.925 37.8418C144.731 37.9299 144.564 38.0621 144.423 38.2384C144.282 38.397 144.211 38.6173 144.211 38.8994C144.211 39.2344 144.335 39.5076 144.582 39.7191C144.828 39.9306 145.146 40.107 145.534 40.2479C145.939 40.3714 146.397 40.4859 146.908 40.5917C147.42 40.6974 147.94 40.812 148.469 40.9354C149.015 41.0589 149.544 41.2086 150.055 41.3849C150.584 41.5613 151.051 41.7992 151.456 42.0988C151.862 42.3809 152.188 42.7422 152.435 43.1829C152.681 43.606 152.805 44.1348 152.805 44.7694C152.805 45.6684 152.62 46.4265 152.25 47.0434C151.897 47.6428 151.43 48.1275 150.848 48.4977C150.267 48.8678 149.597 49.1235 148.839 49.2645C148.098 49.4231 147.34 49.5024 146.565 49.5024C145.771 49.5024 144.996 49.4231 144.238 49.2645C143.48 49.1058 142.801 48.8414 142.202 48.4712C141.62 48.101 141.135 47.6163 140.748 47.0169C140.377 46.4 140.175 45.6332 140.139 44.7165H143.709ZM160.026 35.4885H162.776V38.0004H160.026V44.7694C160.026 45.404 160.132 45.8271 160.343 46.0386C160.555 46.2501 160.978 46.3559 161.613 46.3559C161.824 46.3559 162.027 46.3471 162.221 46.3295C162.415 46.3118 162.6 46.2853 162.776 46.2501V49.1587C162.459 49.2116 162.106 49.2468 161.718 49.2645C161.331 49.2821 160.952 49.2909 160.581 49.2909C160 49.2909 159.444 49.2468 158.916 49.1587C158.405 49.0881 157.946 48.9384 157.541 48.7092C157.153 48.48 156.844 48.1539 156.615 47.7309C156.386 47.3078 156.272 46.7525 156.272 46.065V38.0004H153.998V35.4885H156.272V31.3901H160.026V35.4885Z" fill="white"/>
<path id="Vector_2" d="M66.0479 5.29936H68.0961L73.1554 18.1216L78.1941 5.29936H80.2424V19.924H78.8496V7.28619H78.8086L73.8108 19.924H72.4999L67.4816 7.28619H67.4407V19.924H66.0479V5.29936ZM87.1658 20.2108C86.36 20.2108 85.6431 20.0674 85.0151 19.7807C84.4006 19.4803 83.8816 19.0774 83.4584 18.5722C83.0351 18.067 82.7141 17.4798 82.4957 16.8107C82.2773 16.1279 82.168 15.4042 82.168 14.6395C82.168 13.8885 82.2773 13.1716 82.4957 12.4888C82.7141 11.806 83.0351 11.212 83.4584 10.7068C83.8816 10.2016 84.4006 9.79873 85.0151 9.49833C85.6431 9.19792 86.36 9.0477 87.1658 9.0477C87.9715 9.0477 88.6815 9.19792 89.296 9.49833C89.924 9.79873 90.4499 10.2016 90.8731 10.7068C91.2964 11.212 91.6174 11.806 91.8358 12.4888C92.0543 13.1716 92.1636 13.8885 92.1636 14.6395C92.1636 15.4042 92.0543 16.1279 91.8358 16.8107C91.6174 17.4798 91.2964 18.067 90.8731 18.5722C90.4499 19.0774 89.924 19.4803 89.296 19.7807C88.6815 20.0674 87.9715 20.2108 87.1658 20.2108ZM87.1658 19.1457C87.7802 19.1457 88.3197 19.0159 88.7839 18.7565C89.2481 18.4971 89.6306 18.1557 89.9309 17.7324C90.2451 17.3091 90.4771 16.8312 90.6273 16.2986C90.7912 15.7524 90.8731 15.1994 90.8731 14.6395C90.8731 14.0796 90.7912 13.5334 90.6273 13.0009C90.4771 12.4547 90.2451 11.9699 89.9309 11.5466C89.6306 11.1233 89.2481 10.7819 88.7839 10.5225C88.3197 10.263 87.7802 10.1333 87.1658 10.1333C86.5513 10.1333 86.0118 10.263 85.5476 10.5225C85.0834 10.7819 84.6942 11.1233 84.3801 11.5466C84.0798 11.9699 83.8476 12.4547 83.6837 13.0009C83.5334 13.5334 83.4584 14.0796 83.4584 14.6395C83.4584 15.1994 83.5334 15.7524 83.6837 16.2986C83.8476 16.8312 84.0798 17.3091 84.3801 17.7324C84.6942 18.1557 85.0834 18.4971 85.5476 18.7565C86.0118 19.0159 86.5513 19.1457 87.1658 19.1457ZM98.3425 20.2108C97.5367 20.2108 96.8198 20.0674 96.1918 19.7807C95.5773 19.4803 95.0583 19.0774 94.6351 18.5722C94.2118 18.067 93.8908 17.4798 93.6724 16.8107C93.454 16.1279 93.3447 15.4042 93.3447 14.6395C93.3447 13.8885 93.454 13.1716 93.6724 12.4888C93.8908 11.806 94.2118 11.212 94.6351 10.7068C95.0583 10.2016 95.5773 9.79873 96.1918 9.49833C96.8198 9.19792 97.5367 9.0477 98.3425 9.0477C99.4759 9.0477 100.432 9.34811 101.21 9.94895C102.002 10.5498 102.473 11.4578 102.623 12.6732H101.333C101.155 11.8812 100.828 11.2598 100.35 10.8092C99.8718 10.3586 99.2027 10.1333 98.3425 10.1333C97.728 10.1333 97.1885 10.263 96.7243 10.5225C96.2601 10.7819 95.8709 11.1233 95.5568 11.5466C95.2565 11.9699 95.0243 12.4547 94.8604 13.0009C94.7101 13.5334 94.6351 14.0796 94.6351 14.6395C94.6351 15.1994 94.7101 15.7524 94.8604 16.2986C95.0243 16.8312 95.2565 17.3091 95.5568 17.7324C95.8709 18.1557 96.2601 18.4971 96.7243 18.7565C97.1885 19.0159 97.728 19.1457 98.3425 19.1457C98.7385 19.1457 99.1139 19.0707 99.469 18.9204C99.8241 18.7701 100.138 18.5653 100.411 18.3059C100.684 18.0328 100.91 17.7119 101.087 17.3432C101.265 16.9745 101.374 16.5717 101.415 16.1347H102.705C102.528 17.4183 102.057 18.422 101.292 19.1457C100.527 19.8557 99.544 20.2108 98.3425 20.2108ZM104.294 9.35495H105.584V14.7829L111.442 9.35495H113.163L108.677 13.4925L113.429 19.924H111.811L107.735 14.3732L105.584 16.36V19.924H104.294V9.35495ZM118.756 20.2108C117.95 20.2108 117.233 20.0674 116.605 19.7807C115.99 19.4803 115.471 19.0774 115.048 18.5722C114.625 18.067 114.304 17.4798 114.086 16.8107C113.867 16.1279 113.758 15.4042 113.758 14.6395C113.758 13.8885 113.867 13.1716 114.086 12.4888C114.304 11.806 114.625 11.212 115.048 10.7068C115.471 10.2016 115.99 9.79873 116.605 9.49833C117.233 9.19792 117.95 9.0477 118.756 9.0477C119.561 9.0477 120.271 9.19792 120.886 9.49833C121.514 9.79873 122.04 10.2016 122.463 10.7068C122.886 11.212 123.207 11.806 123.426 12.4888C123.644 13.1716 123.753 13.8885 123.753 14.6395C123.753 15.4042 123.644 16.1279 123.426 16.8107C123.207 17.4798 122.886 18.067 122.463 18.5722C122.04 19.0774 121.514 19.4803 120.886 19.7807C120.271 20.0674 119.561 20.2108 118.756 20.2108ZM118.756 19.1457C119.37 19.1457 119.91 19.0159 120.374 18.7565C120.838 18.4971 121.22 18.1557 121.521 17.7324C121.835 17.3091 122.067 16.8312 122.217 16.2986C122.381 15.7524 122.463 15.1994 122.463 14.6395C122.463 14.0796 122.381 13.5334 122.217 13.0009C122.067 12.4547 121.835 11.9699 121.521 11.5466C121.22 11.1233 120.838 10.7819 120.374 10.5225C119.91 10.263 119.37 10.1333 118.756 10.1333C118.141 10.1333 117.602 10.263 117.137 10.5225C116.673 10.7819 116.284 11.1233 115.97 11.5466C115.67 11.9699 115.437 12.4547 115.274 13.0009C115.123 13.5334 115.048 14.0796 115.048 14.6395C115.048 15.1994 115.123 15.7524 115.274 16.2986C115.437 16.8312 115.67 17.3091 115.97 17.7324C116.284 18.1557 116.673 18.4971 117.137 18.7565C117.602 19.0159 118.141 19.1457 118.756 19.1457ZM125.447 9.35495H130.28C131.359 9.35495 132.192 9.56661 132.779 9.98991C133.366 10.4132 133.66 11.0345 133.66 11.8538C133.66 12.482 133.496 13.0077 133.169 13.431C132.854 13.8543 132.411 14.1479 131.837 14.3118V14.3527C132.534 14.4756 133.08 14.7487 133.476 15.172C133.872 15.5954 134.07 16.1962 134.07 16.9745C134.07 17.9304 133.749 18.661 133.107 19.1662C132.465 19.6714 131.523 19.924 130.28 19.924H125.447V9.35495ZM130.137 18.8385C131.038 18.8385 131.701 18.6746 132.124 18.3469C132.561 18.0055 132.779 17.5002 132.779 16.8312C132.779 16.2167 132.561 15.7456 132.124 15.4178C131.701 15.0901 131.038 14.9263 130.137 14.9263H126.737V18.8385H130.137ZM130.137 13.9226C130.874 13.9226 131.428 13.7656 131.796 13.4515C132.178 13.1374 132.37 12.7141 132.37 12.1816C132.37 11.0209 131.625 10.4405 130.137 10.4405H126.737V13.9226H130.137ZM140.309 20.2108C139.503 20.2108 138.786 20.0674 138.158 19.7807C137.544 19.4803 137.025 19.0774 136.601 18.5722C136.178 18.067 135.857 17.4798 135.639 16.8107C135.42 16.1279 135.311 15.4042 135.311 14.6395C135.311 13.8885 135.42 13.1716 135.639 12.4888C135.857 11.806 136.178 11.212 136.601 10.7068C137.025 10.2016 137.544 9.79873 138.158 9.49833C138.786 9.19792 139.503 9.0477 140.309 9.0477C141.442 9.0477 142.398 9.34811 143.176 9.94895C143.969 10.5498 144.44 11.4578 144.59 12.6732H143.299C143.122 11.8812 142.794 11.2598 142.316 10.8092C141.838 10.3586 141.169 10.1333 140.309 10.1333C139.694 10.1333 139.155 10.263 138.691 10.5225C138.226 10.7819 137.837 11.1233 137.523 11.5466C137.223 11.9699 136.991 12.4547 136.827 13.0009C136.677 13.5334 136.601 14.0796 136.601 14.6395C136.601 15.1994 136.677 15.7524 136.827 16.2986C136.991 16.8312 137.223 17.3091 137.523 17.7324C137.837 18.1557 138.226 18.4971 138.691 18.7565C139.155 19.0159 139.694 19.1457 140.309 19.1457C140.705 19.1457 141.08 19.0707 141.435 18.9204C141.79 18.7701 142.105 18.5653 142.378 18.3059C142.651 18.0328 142.876 17.7119 143.054 17.3432C143.231 16.9745 143.34 16.5717 143.381 16.1347H144.672C144.494 17.4183 144.023 18.422 143.258 19.1457C142.494 19.8557 141.511 20.2108 140.309 20.2108ZM146.26 9.35495H147.551V14.7829L153.409 9.35495H155.129L150.644 13.4925L155.396 19.924H153.777L149.701 14.3732L147.551 16.36V19.924H146.26V9.35495ZM156.236 9.35495H157.527V18.4083L163.364 9.35495H164.962V19.924H163.671V10.8707L157.834 19.924H156.236V9.35495ZM167.173 19.924V9.35495H168.463V18.4083L174.301 9.35495H175.899V19.924H174.608V10.8707L168.771 19.924H167.173ZM171.495 7.79826C170.634 7.79826 169.965 7.57295 169.487 7.12233C169.01 6.65806 168.716 5.99577 168.607 5.1355H169.406C169.474 5.6544 169.686 6.06406 170.04 6.36446C170.409 6.66487 170.901 6.81508 171.515 6.81508C172.103 6.81508 172.58 6.67171 172.949 6.38495C173.332 6.08454 173.577 5.66805 173.686 5.1355H174.485C174.335 5.99577 174.014 6.65806 173.523 7.12233C173.031 7.57295 172.355 7.79826 171.495 7.79826ZM187.334 20.2108C185.927 20.2108 184.862 19.89 184.138 19.2481C183.428 18.5927 183.039 17.7119 182.971 16.6058H184.261C184.316 16.9882 184.411 17.3364 184.548 17.6505C184.684 17.9645 184.876 18.2308 185.121 18.4493C185.367 18.6677 185.668 18.8385 186.023 18.9614C186.392 19.0707 186.835 19.1252 187.354 19.1252C187.941 19.1252 188.419 19.0569 188.788 18.9204C189.157 18.7839 189.443 18.6063 189.648 18.3878C189.866 18.1557 190.017 17.9031 190.099 17.63C190.181 17.3569 190.222 17.0838 190.222 16.8107C190.222 16.2781 190.045 15.8275 189.689 15.4588C189.348 15.0901 188.775 14.9058 187.969 14.9058H186.207V13.9226H187.661C188.276 13.9226 188.801 13.7587 189.239 13.431C189.676 13.1033 189.894 12.6254 189.894 11.9972C189.894 11.806 189.861 11.6012 189.792 11.3827C189.738 11.1643 189.615 10.9662 189.423 10.7887C189.231 10.5976 188.965 10.4474 188.624 10.3381C188.283 10.2152 187.838 10.1538 187.293 10.1538C186.323 10.1538 185.62 10.3723 185.183 10.8092C184.759 11.2325 184.514 11.7719 184.445 12.4274H183.176C183.23 11.7856 183.38 11.253 183.626 10.8297C183.872 10.3927 184.179 10.0445 184.548 9.78508C184.917 9.52564 185.34 9.3413 185.818 9.23205C186.297 9.1228 186.794 9.06819 187.313 9.06819C187.859 9.06819 188.365 9.1228 188.829 9.23205C189.308 9.32763 189.723 9.49149 190.078 9.72364C190.434 9.94211 190.713 10.2357 190.918 10.6044C191.123 10.9594 191.225 11.3964 191.225 11.9153C191.225 12.2294 191.177 12.5161 191.082 12.7756C190.987 13.035 190.857 13.2672 190.693 13.472C190.542 13.6768 190.365 13.8475 190.16 13.984C189.956 14.1206 189.743 14.2094 189.525 14.2503V14.2913C189.771 14.3323 190.017 14.4074 190.263 14.5166C190.509 14.6258 190.726 14.7829 190.918 14.9877C191.11 15.1789 191.266 15.4247 191.389 15.7251C191.512 16.0118 191.574 16.36 191.574 16.7697C191.574 17.3432 191.458 17.8485 191.225 18.2854C190.993 18.7087 190.68 19.0638 190.283 19.3505C189.902 19.6373 189.451 19.849 188.931 19.9855C188.427 20.1358 187.894 20.2108 187.334 20.2108ZM196.333 20.2108C195.842 20.2108 195.376 20.1494 194.94 20.0265C194.516 19.9172 194.141 19.7397 193.814 19.4939C193.499 19.2345 193.246 18.9135 193.056 18.5312C192.877 18.1352 192.79 17.6709 192.79 17.1384C192.79 16.401 192.953 15.8275 193.281 15.4178C193.609 14.9945 194.039 14.6736 194.572 14.4552C195.117 14.2367 195.724 14.0865 196.395 14.0045C197.076 13.909 197.767 13.8202 198.463 13.7383C198.722 13.7109 198.955 13.6768 199.16 13.6358C199.378 13.5949 199.554 13.5266 199.692 13.431C199.828 13.3218 199.931 13.1784 199.999 13.0009C200.081 12.8234 200.122 12.5912 200.122 12.3045C200.122 11.8675 200.046 11.5125 199.897 11.2394C199.759 10.9526 199.562 10.7273 199.303 10.5634C199.057 10.3996 198.763 10.2903 198.422 10.2357C198.095 10.1674 197.739 10.1333 197.357 10.1333C196.538 10.1333 195.868 10.3313 195.35 10.7273C194.83 11.1096 194.557 11.7309 194.531 12.5912H193.24C193.322 11.3486 193.745 10.4474 194.51 9.8875C195.288 9.32763 196.292 9.0477 197.521 9.0477C197.985 9.0477 198.448 9.0955 198.914 9.19108C199.378 9.27302 199.795 9.43688 200.163 9.68267C200.532 9.92846 200.832 10.2767 201.065 10.7273C201.296 11.1643 201.413 11.7378 201.413 12.4478V18.0601C201.413 18.5791 201.664 18.8385 202.171 18.8385C202.335 18.8385 202.47 18.8111 202.58 18.7565V19.8421C202.43 19.8695 202.294 19.89 202.171 19.9036C202.061 19.9172 201.917 19.924 201.741 19.924C201.413 19.924 201.147 19.8831 200.942 19.8012C200.75 19.7056 200.599 19.5758 200.491 19.412C200.381 19.2481 200.307 19.0569 200.266 18.8385C200.238 18.6063 200.225 18.3537 200.225 18.0806H200.184C199.951 18.422 199.713 18.7292 199.467 19.0023C199.234 19.2617 198.968 19.4803 198.668 19.6578C198.381 19.8352 198.046 19.9719 197.664 20.0674C197.281 20.163 196.838 20.2108 196.333 20.2108ZM196.436 19.1457C196.927 19.1457 197.398 19.0707 197.849 18.9204C198.299 18.7701 198.689 18.5517 199.016 18.2649C199.357 17.9782 199.623 17.63 199.815 17.2203C200.02 16.8107 200.122 16.3464 200.122 15.8275V14.1479H200.081C200 14.2981 199.841 14.4074 199.61 14.4756C199.378 14.5439 199.173 14.5917 198.996 14.619C198.448 14.7146 197.882 14.8034 197.296 14.8853C196.722 14.9536 196.195 15.0628 195.719 15.213C195.24 15.3632 194.843 15.5817 194.531 15.8685C194.229 16.1552 194.08 16.5512 194.08 17.0565C194.08 17.3842 194.141 17.6778 194.264 17.9372C194.4 18.183 194.577 18.4015 194.797 18.5927C195.015 18.7701 195.261 18.9068 195.534 19.0023C195.821 19.0978 196.121 19.1457 196.436 19.1457ZM203.759 9.35495H208.593C209.671 9.35495 210.505 9.56661 211.092 9.98991C211.678 10.4132 211.973 11.0345 211.973 11.8538C211.973 12.482 211.809 13.0077 211.481 13.431C211.166 13.8543 210.723 14.1479 210.15 14.3118V14.3527C210.846 14.4756 211.392 14.7487 211.788 15.172C212.185 15.5954 212.382 16.1962 212.382 16.9745C212.382 17.9304 212.062 18.661 211.42 19.1662C210.777 19.6714 209.835 19.924 208.593 19.924H203.759V9.35495ZM208.45 18.8385C209.351 18.8385 210.014 18.6746 210.436 18.3469C210.874 18.0055 211.092 17.5002 211.092 16.8312C211.092 16.2167 210.874 15.7456 210.436 15.4178C210.014 15.0901 209.351 14.9263 208.45 14.9263H205.049V18.8385H208.45ZM208.45 13.9226C209.187 13.9226 209.74 13.7656 210.109 13.4515C210.49 13.1374 210.682 12.7141 210.682 12.1816C210.682 11.0209 209.937 10.4405 208.45 10.4405H205.049V13.9226H208.45ZM218.62 20.2108C217.816 20.2108 217.099 20.0674 216.47 19.7807C215.855 19.4803 215.337 19.0774 214.913 18.5722C214.49 18.067 214.17 17.4798 213.95 16.8107C213.732 16.1279 213.622 15.4042 213.622 14.6395C213.622 13.8885 213.732 13.1716 213.95 12.4888C214.17 11.806 214.49 11.212 214.913 10.7068C215.337 10.2016 215.855 9.79873 216.47 9.49833C217.099 9.19792 217.816 9.0477 218.62 9.0477C219.426 9.0477 220.136 9.19792 220.75 9.49833C221.38 9.79873 221.905 10.2016 222.328 10.7068C222.752 11.212 223.072 11.806 223.29 12.4888C223.51 13.1716 223.618 13.8885 223.618 14.6395C223.618 15.4042 223.51 16.1279 223.29 16.8107C223.072 17.4798 222.752 18.067 222.328 18.5722C221.905 19.0774 221.38 19.4803 220.75 19.7807C220.136 20.0674 219.426 20.2108 218.62 20.2108ZM218.62 19.1457C219.235 19.1457 219.775 19.0159 220.238 18.7565C220.704 18.4971 221.086 18.1557 221.385 17.7324C221.7 17.3091 221.933 16.8312 222.082 16.2986C222.246 15.7524 222.328 15.1994 222.328 14.6395C222.328 14.0796 222.246 13.5334 222.082 13.0009C221.933 12.4547 221.7 11.9699 221.385 11.5466C221.086 11.1233 220.704 10.7819 220.238 10.5225C219.775 10.263 219.235 10.1333 218.62 10.1333C218.006 10.1333 217.468 10.263 217.002 10.5225C216.538 10.7819 216.149 11.1233 215.835 11.5466C215.535 11.9699 215.302 12.4547 215.138 13.0009C214.989 13.5334 214.913 14.0796 214.913 14.6395C214.913 15.1994 214.989 15.7524 215.138 16.2986C215.302 16.8312 215.535 17.3091 215.835 17.7324C216.149 18.1557 216.538 18.4971 217.002 18.7565C217.468 19.0159 218.006 19.1457 218.62 19.1457ZM224.227 18.8385H225.476C225.981 17.8963 226.35 16.7765 226.582 15.4793C226.813 14.182 226.931 12.6049 226.931 10.7478V9.35495H234.038V18.8385H235.615V23.2832H234.325V19.924H225.517V23.2832H224.227V18.8385ZM232.748 18.8385V10.4405H228.18V11.1779C228.18 12.9531 228.05 14.4825 227.791 15.766C227.53 17.036 227.202 18.0601 226.808 18.8385H232.748Z" fill="white"/>
<path id="Vector_3" d="M26.9609 0C33.3484 0 39.6967 0 46.0842 0C47.4949 0 48.8274 0.313273 50.0813 1.01813C52.0407 2.15374 53.3338 3.87672 53.8041 6.10878C53.9609 6.77447 54 7.40102 54 8.06672C54 20.7542 54 33.4807 54 46.1683C54 48.9093 52.8245 51.1413 50.5514 52.7077C49.2975 53.5693 47.8868 53.9609 46.3977 54C46.3193 54 46.2409 54 46.1626 54C33.3875 54 20.6125 54 7.83745 54C6.30914 54 4.85922 53.6084 3.56605 52.7861C1.72424 51.6113 0.587807 49.9275 0.156747 47.7738C0.0391848 47.1863 0 46.599 0 46.0115C0 33.3241 0 20.6368 0 7.94925C0 5.63887 0.783743 3.64178 2.50798 2.07542C3.72278 0.939812 5.21191 0.234952 6.89695 0.0783168C7.44558 0.0391575 7.9942 0 8.54282 0C14.6168 0 20.8084 0 26.9609 0ZM26.9609 51.3763C30.7228 51.3763 34.4457 51.3763 38.2076 51.3763C40.8331 51.3763 43.4586 51.3763 46.0842 51.3763C46.9463 51.3763 47.8084 51.2197 48.5529 50.7891C50.3948 49.7709 51.3352 48.2045 51.3352 46.129C51.3352 33.4025 51.3352 20.6368 51.3352 7.91007C51.3352 7.79261 51.3352 7.71429 51.3352 7.59681C51.2961 6.69617 51.1002 5.87382 50.5907 5.09064C49.5327 3.40682 48.0043 2.58448 46.0451 2.58448C33.8969 2.58448 21.7097 2.58448 9.52249 2.58448C8.85632 2.58448 8.19012 2.58448 7.52395 2.58448C6.26996 2.62364 5.17272 3.05439 4.23222 3.91587C3.0566 4.97318 2.50798 6.30457 2.50798 7.91007C2.50798 20.6368 2.50798 33.4025 2.50798 46.129C2.50798 46.599 2.54716 47.0688 2.66473 47.4997C2.97823 48.7527 3.6836 49.7709 4.78084 50.5149C5.68214 51.1413 6.70101 51.3763 7.79825 51.3763C14.2642 51.3763 20.6125 51.3763 26.9609 51.3763Z" fill="white"/>
<path id="Vector_4" d="M6.70093 27.098C6.7793 16.0161 15.7924 7.00955 26.804 7.04871C37.8156 7.08787 46.7894 16.0944 46.7503 27.1371C46.711 38.2583 37.7765 47.1864 26.6863 47.1864C15.5964 47.1864 6.81848 38.18 6.70093 27.098ZM15.2045 19.0705C15.2045 18.718 15.2437 18.4048 15.2829 18.0523C15.4397 17.23 15.7924 16.5252 16.4977 16.0552C17.0855 15.6636 17.7125 15.5853 18.3787 15.5853C23.5907 15.5853 28.7633 15.5853 33.9752 15.5853C34.5238 15.5853 35.0725 15.5462 35.6211 15.6245C36.7575 15.742 37.5413 16.3294 37.9723 17.3866C38.2466 18.0523 38.2859 18.7573 38.2859 19.4621C38.2859 24.9051 38.2859 30.309 38.2859 35.7522C38.2859 37.6318 36.7575 39.0806 34.8765 39.0806C34.2495 39.0806 33.6226 39.0806 32.9563 39.0806C30.6444 39.0806 28.3715 39.0806 26.0594 39.0806C25.6283 39.0806 25.5892 39.0415 25.5892 38.689C25.5892 32.267 25.5892 25.8449 25.5892 19.423C25.5892 18.9139 25.5108 18.8355 25.0014 18.8355C22.9244 18.8355 20.8475 18.8746 18.8098 18.8746C18.4179 18.8746 18.3003 18.9921 18.3003 19.3837C18.3003 21.42 18.3003 23.4562 18.3003 25.4926C18.3003 25.8449 18.4179 25.9624 18.7705 25.9624C19.6719 25.9624 20.5341 25.9624 21.4353 25.9624C21.7489 25.9624 21.8273 26.0408 21.8273 26.354C21.8273 27.1762 21.8273 27.9987 21.8273 28.821C21.8273 29.2126 21.7489 29.2517 21.3962 29.2517C20.5341 29.2517 19.6719 29.2517 18.8489 29.2517C18.4571 29.2517 18.3003 29.3692 18.3003 29.7999C18.3003 33.7549 18.3003 37.71 18.3003 41.6652C18.3003 42.0175 18.4571 42.2916 18.7705 42.4482C19.4368 42.7616 20.103 43.0748 20.7691 43.3489C22.2583 43.8971 23.8256 44.2105 25.4324 44.3279C28.3322 44.5237 31.1145 44.0539 33.7793 42.8791C36.64 41.5868 38.952 39.6288 40.7547 37.0836C42.2828 34.9297 43.2234 32.5411 43.6153 29.9567C43.8503 28.3903 43.8896 26.8239 43.7328 25.2185C43.5369 23.378 43.0666 21.655 42.2828 19.9712C41.2641 17.8174 39.9316 15.9377 38.1682 14.3323C36.6007 12.9225 34.8374 11.9044 32.8779 11.1604C31.1538 10.4947 29.3903 10.1031 27.5094 10.0248C25.6283 9.94646 23.7865 10.1814 21.9448 10.6905C19.8678 11.2779 17.9477 12.1785 16.2626 13.5099C13.4411 15.742 11.4034 18.5223 10.3061 21.9682C9.63996 24.1219 9.44403 26.354 9.60078 28.6251C9.71834 29.9958 9.95346 31.3663 10.3845 32.6977C10.9331 34.3815 11.7561 35.9479 12.8533 37.3577C13.206 37.8275 13.4019 38.1016 13.9897 38.7674C14.1857 39.0022 14.4208 39.2372 14.6559 39.4722C14.7343 39.5504 14.8519 39.6679 15.0086 39.7072C15.1262 39.7072 15.1262 39.5897 15.1262 39.4722C15.1262 39.0022 15.1262 38.0625 15.1262 37.6709C15.1654 34.6949 15.2045 22.2423 15.2045 19.0705ZM28.5674 27.2937V35.1647C28.5674 35.6347 28.6458 35.7129 29.116 35.7129C30.9186 35.7129 32.7213 35.7129 34.5238 35.7129C34.9549 35.7129 35.0333 35.6347 35.0333 35.2038C35.0333 29.9174 35.0333 24.631 35.0333 19.3446C35.0333 18.953 34.9158 18.8355 34.5238 18.8355C32.7213 18.8355 30.9186 18.8355 29.0769 18.8355C28.6458 18.8355 28.5281 18.953 28.5281 19.3446V27.2937H28.5674Z" fill="white"/>
</g>
</svg>
